---
title: AgentState change with API calls
---

stateDiagram
  direction LR
  [*] --> READY
  READY --> RUNNING:/start
  RUNNING --> COMPLETED
  RUNNING --> FAULTED
  RUNNING --> STOPPING:/stop
  FAULTED --> STOPPING:/stop
  FAULTED --> [*]:/shutdown
  STOPPING --> READY
  COMPLETED --> [*]:/shutdown
  READY --> [*]:/shutdown